<?xml version="1.0" standalone="no"?><!DOCTYPE svg PUBLIC "-//W3C//DTD SVG 1.1//EN" "http://www.w3.org/Graphics/SVG/1.1/DTD/svg11.dtd"><svg t="1750150507730" class="icon" viewBox="0 0 1024 1024" version="1.1" xmlns="http://www.w3.org/2000/svg" p-id="7766" width="300" height="300" xmlns:xlink="http://www.w3.org/1999/xlink"><path d="M512 0c-282.8 0-512 229.2-512 512s229.2 512 512 512 512-229.2 512-512-229.2-512-512-512z m0 969.8c-252.8 0-457.8-205-457.8-457.8s205-457.8 457.8-457.8 457.8 205 457.8 457.8-205 457.8-457.8 457.8z" fill="#0093F1" p-id="7767"></path><path d="M512 512.8m-326 0a326 326 0 1 0 652 0 326 326 0 1 0-652 0Z" fill="#0093F1" p-id="7768"></path><path d="M759.3 179.9L354.8 511s-15.2 12.7-7.7 21.9c7.4 9.2 9.4 14.8 31.1 14.8h118.1s8.1 0.5 1.5 8.1S264.6 844 264.6 844l393.2-346.8s6.5-7.7 6.5-13.9c0-6.1-1.5-24-24.7-24s-114.7 1.8-114.7 1.8l234.4-281.2z" fill="#1D5AA3" p-id="7769"></path><path d="M622.7 496c25.4-16.8 28.6-39.8 28.6-69s-25.8-62.1-58.9-62.6c-33.1-0.4-41.3-10.1-41.3-10.1v-57.6c0-9.6-6.5-8.6-6.5-8.6h-35.3v68.8h-26.2c-3 0-3.2-3.2-3.2-3.2V301c0-13.8-5.8-12.9-5.8-12.9h-31c-6 0-4.7 8.2-4.7 8.2v54.8c0 6.7-6.7 6.7-6.7 6.7h-79.5v39.4h37c14.6 0 14.6 12.9 14.6 12.9V609c0 9-8.2 10.3-8.2 10.3h-33.3c-14 0-13.1 48.6-13.1 48.6h80.2V727c0 9.5 7.3 10.6 7.3 10.6h30.4c7.4 0 7-7 7-7v-51.8c0-12.3 7.1-11.4 7.1-11.4h17c6.9 0 7.1 7.1 7.1 7.1v55c0 7 4.7 8.4 4.7 8.4h31.6c7.7 0 7.5-6.9 7.5-6.9v-54.4c0-4.3 2.4-12.7 46.2-12.7 43.9 0 81.1-38.1 81.1-93.3 0.1-55.2-53.7-74.6-53.7-74.6z m-132.9-94c14.8 0 85.6 1.6 85.6 38.9S539.6 489 523.5 489h-38.2s-9.2-0.6-9.2-12.6v-65.2s-1.1-9.2 13.7-9.2z m40.9 217.5h-44s-10.6-0.7-10.6-13.4v-69.5s-1.3-9.8 15.8-9.8 98.6 1.7 98.6 41.5c0 39.6-41.2 51.2-59.8 51.2z" fill="#FFFFFF" p-id="7770"></path><path d="M491.9 526.7c-17.1 0-15.8 9.8-15.8 9.8v11.3h20.2s8.1 0.5 1.5 8.1-233.2 288.2-233.2 288.2l323.8-285.6c-12.3-30.2-81-31.8-96.5-31.8z" fill="#1D5AA3" p-id="7771"></path></svg>